<?xml version="1.0" encoding="utf-8" standalone="no"?>
<!DOCTYPE svg PUBLIC "-//W3C//DTD SVG 1.1//EN"
  "http://www.w3.org/Graphics/SVG/1.1/DTD/svg11.dtd">
<!-- Created with matplotlib (https://matplotlib.org/) -->
<svg height="864pt" version="1.1" viewBox="0 0 1008 864" width="1008pt" xmlns="http://www.w3.org/2000/svg" xmlns:xlink="http://www.w3.org/1999/xlink">
 <defs>
  <style type="text/css">
*{stroke-linecap:butt;stroke-linejoin:round;white-space:pre;}
  </style>
 </defs>
 <g id="figure_1">
  <g id="patch_1">
   <path d="M 0 864 
L 1008 864 
L 1008 0 
L 0 0 
z
" style="fill:#f0f0f0;"/>
  </g>
  <g id="axes_1">
   <g id="patch_2">
    <path d="M 80.64 756 
L 957.6 756 
L 957.6 103.68 
L 80.64 103.68 
z
" style="fill:#ffffff;"/>
   </g>
   <g id="matplotlib.axis_1">
    <g id="xtick_1">
     <g id="line2d_1">
      <path clip-path="url(#p9dc0887031)" d="M 140.50873 756 
L 140.50873 103.68 
" style="fill:none;stroke:#cccccc;stroke-linecap:round;"/>
     </g>
     <g id="text_1">
      <!-- 0.6 -->
      <defs>
       <path d="M 4.15625 35.296875 
Q 4.15625 48 6.765625 55.734375 
Q 9.375 63.484375 14.515625 67.671875 
Q 19.671875 71.875 27.484375 71.875 
Q 33.25 71.875 37.59375 69.546875 
Q 41.9375 67.234375 44.765625 62.859375 
Q 47.609375 58.5 49.21875 52.21875 
Q 50.828125 45.953125 50.828125 35.296875 
Q 50.828125 22.703125 48.234375 14.96875 
Q 45.65625 7.234375 40.5 3 
Q 35.359375 -1.21875 27.484375 -1.21875 
Q 17.140625 -1.21875 11.234375 6.203125 
Q 4.15625 15.140625 4.15625 35.296875 
z
M 13.1875 35.296875 
Q 13.1875 17.671875 17.3125 11.828125 
Q 21.4375 6 27.484375 6 
Q 33.546875 6 37.671875 11.859375 
Q 41.796875 17.71875 41.796875 35.296875 
Q 41.796875 52.984375 37.671875 58.78125 
Q 33.546875 64.59375 27.390625 64.59375 
Q 21.34375 64.59375 17.71875 59.46875 
Q 13.1875 52.9375 13.1875 35.296875 
z
" id="ArialMT-48"/>
       <path d="M 9.078125 0 
L 9.078125 10.015625 
L 19.09375 10.015625 
L 19.09375 0 
z
" id="ArialMT-46"/>
       <path d="M 49.75 54.046875 
L 41.015625 53.375 
Q 39.84375 58.546875 37.703125 60.890625 
Q 34.125 64.65625 28.90625 64.65625 
Q 24.703125 64.65625 21.53125 62.3125 
Q 17.390625 59.28125 14.984375 53.46875 
Q 12.59375 47.65625 12.5 36.921875 
Q 15.671875 41.75 20.265625 44.09375 
Q 24.859375 46.4375 29.890625 46.4375 
Q 38.671875 46.4375 44.84375 39.96875 
Q 51.03125 33.5 51.03125 23.25 
Q 51.03125 16.5 48.125 10.71875 
Q 45.21875 4.9375 40.140625 1.859375 
Q 35.0625 -1.21875 28.609375 -1.21875 
Q 17.625 -1.21875 10.6875 6.859375 
Q 3.765625 14.9375 3.765625 33.5 
Q 3.765625 54.25 11.421875 63.671875 
Q 18.109375 71.875 29.4375 71.875 
Q 37.890625 71.875 43.28125 67.140625 
Q 48.6875 62.40625 49.75 54.046875 
z
M 13.875 23.1875 
Q 13.875 18.65625 15.796875 14.5 
Q 17.71875 10.359375 21.1875 8.171875 
Q 24.65625 6 28.46875 6 
Q 34.03125 6 38.03125 10.484375 
Q 42.046875 14.984375 42.046875 22.703125 
Q 42.046875 30.125 38.078125 34.390625 
Q 34.125 38.671875 28.125 38.671875 
Q 22.171875 38.671875 18.015625 34.390625 
Q 13.875 30.125 13.875 23.1875 
z
" id="ArialMT-54"/>
      </defs>
      <g style="fill:#262626;" transform="translate(132.86373 776.873594)scale(0.11 -0.11)">
       <use xlink:href="#ArialMT-48"/>
       <use x="55.615234" xlink:href="#ArialMT-46"/>
       <use x="83.398438" xlink:href="#ArialMT-54"/>
      </g>
     </g>
    </g>
    <g id="xtick_2">
     <g id="line2d_2">
      <path clip-path="url(#p9dc0887031)" d="M 279.630434 756 
L 279.630434 103.68 
" style="fill:none;stroke:#cccccc;stroke-linecap:round;"/>
     </g>
     <g id="text_2">
      <!-- 0.8 -->
      <defs>
       <path d="M 17.671875 38.8125 
Q 12.203125 40.828125 9.5625 44.53125 
Q 6.9375 48.25 6.9375 53.421875 
Q 6.9375 61.234375 12.546875 66.546875 
Q 18.171875 71.875 27.484375 71.875 
Q 36.859375 71.875 42.578125 66.421875 
Q 48.296875 60.984375 48.296875 53.171875 
Q 48.296875 48.1875 45.671875 44.5 
Q 43.0625 40.828125 37.75 38.8125 
Q 44.34375 36.671875 47.78125 31.875 
Q 51.21875 27.09375 51.21875 20.453125 
Q 51.21875 11.28125 44.71875 5.03125 
Q 38.234375 -1.21875 27.640625 -1.21875 
Q 17.046875 -1.21875 10.546875 5.046875 
Q 4.046875 11.328125 4.046875 20.703125 
Q 4.046875 27.6875 7.59375 32.390625 
Q 11.140625 37.109375 17.671875 38.8125 
z
M 15.921875 53.71875 
Q 15.921875 48.640625 19.1875 45.40625 
Q 22.46875 42.1875 27.6875 42.1875 
Q 32.765625 42.1875 36.015625 45.375 
Q 39.265625 48.578125 39.265625 53.21875 
Q 39.265625 58.0625 35.90625 61.359375 
Q 32.5625 64.65625 27.59375 64.65625 
Q 22.5625 64.65625 19.234375 61.421875 
Q 15.921875 58.203125 15.921875 53.71875 
z
M 13.09375 20.65625 
Q 13.09375 16.890625 14.875 13.375 
Q 16.65625 9.859375 20.171875 7.921875 
Q 23.6875 6 27.734375 6 
Q 34.03125 6 38.125 10.046875 
Q 42.234375 14.109375 42.234375 20.359375 
Q 42.234375 26.703125 38.015625 30.859375 
Q 33.796875 35.015625 27.4375 35.015625 
Q 21.234375 35.015625 17.15625 30.90625 
Q 13.09375 26.8125 13.09375 20.65625 
z
" id="ArialMT-56"/>
      </defs>
      <g style="fill:#262626;" transform="translate(271.985434 776.873594)scale(0.11 -0.11)">
       <use xlink:href="#ArialMT-48"/>
       <use x="55.615234" xlink:href="#ArialMT-46"/>
       <use x="83.398438" xlink:href="#ArialMT-56"/>
      </g>
     </g>
    </g>
    <g id="xtick_3">
     <g id="line2d_3">
      <path clip-path="url(#p9dc0887031)" d="M 418.752139 756 
L 418.752139 103.68 
" style="fill:none;stroke:#cccccc;stroke-linecap:round;"/>
     </g>
     <g id="text_3">
      <!-- 1.0 -->
      <defs>
       <path d="M 37.25 0 
L 28.46875 0 
L 28.46875 56 
Q 25.296875 52.984375 20.140625 49.953125 
Q 14.984375 46.921875 10.890625 45.40625 
L 10.890625 53.90625 
Q 18.265625 57.375 23.78125 62.296875 
Q 29.296875 67.234375 31.59375 71.875 
L 37.25 71.875 
z
" id="ArialMT-49"/>
      </defs>
      <g style="fill:#262626;" transform="translate(411.107139 776.873594)scale(0.11 -0.11)">
       <use xlink:href="#ArialMT-49"/>
       <use x="55.615234" xlink:href="#ArialMT-46"/>
       <use x="83.398438" xlink:href="#ArialMT-48"/>
      </g>
     </g>
    </g>
    <g id="xtick_4">
     <g id="line2d_4">
      <path clip-path="url(#p9dc0887031)" d="M 557.873843 756 
L 557.873843 103.68 
" style="fill:none;stroke:#cccccc;stroke-linecap:round;"/>
     </g>
     <g id="text_4">
      <!-- 1.2 -->
      <defs>
       <path d="M 50.34375 8.453125 
L 50.34375 0 
L 3.03125 0 
Q 2.9375 3.171875 4.046875 6.109375 
Q 5.859375 10.9375 9.828125 15.625 
Q 13.8125 20.3125 21.34375 26.46875 
Q 33.015625 36.03125 37.109375 41.625 
Q 41.21875 47.21875 41.21875 52.203125 
Q 41.21875 57.421875 37.46875 61 
Q 33.734375 64.59375 27.734375 64.59375 
Q 21.390625 64.59375 17.578125 60.78125 
Q 13.765625 56.984375 13.71875 50.25 
L 4.6875 51.171875 
Q 5.609375 61.28125 11.65625 66.578125 
Q 17.71875 71.875 27.9375 71.875 
Q 38.234375 71.875 44.234375 66.15625 
Q 50.25 60.453125 50.25 52 
Q 50.25 47.703125 48.484375 43.546875 
Q 46.734375 39.40625 42.65625 34.8125 
Q 38.578125 30.21875 29.109375 22.21875 
Q 21.1875 15.578125 18.9375 13.203125 
Q 16.703125 10.84375 15.234375 8.453125 
z
" id="ArialMT-50"/>
      </defs>
      <g style="fill:#262626;" transform="translate(550.228843 776.873594)scale(0.11 -0.11)">
       <use xlink:href="#ArialMT-49"/>
       <use x="55.615234" xlink:href="#ArialMT-46"/>
       <use x="83.398438" xlink:href="#ArialMT-50"/>
      </g>
     </g>
    </g>
    <g id="xtick_5">
     <g id="line2d_5">
      <path clip-path="url(#p9dc0887031)" d="M 696.995548 756 
L 696.995548 103.68 
" style="fill:none;stroke:#cccccc;stroke-linecap:round;"/>
     </g>
     <g id="text_5">
      <!-- 1.4 -->
      <defs>
       <path d="M 32.328125 0 
L 32.328125 17.140625 
L 1.265625 17.140625 
L 1.265625 25.203125 
L 33.9375 71.578125 
L 41.109375 71.578125 
L 41.109375 25.203125 
L 50.78125 25.203125 
L 50.78125 17.140625 
L 41.109375 17.140625 
L 41.109375 0 
z
M 32.328125 25.203125 
L 32.328125 57.46875 
L 9.90625 25.203125 
z
" id="ArialMT-52"/>
      </defs>
      <g style="fill:#262626;" transform="translate(689.350548 776.873594)scale(0.11 -0.11)">
       <use xlink:href="#ArialMT-49"/>
       <use x="55.615234" xlink:href="#ArialMT-46"/>
       <use x="83.398438" xlink:href="#ArialMT-52"/>
      </g>
     </g>
    </g>
    <g id="xtick_6">
     <g id="line2d_6">
      <path clip-path="url(#p9dc0887031)" d="M 836.117252 756 
L 836.117252 103.68 
" style="fill:none;stroke:#cccccc;stroke-linecap:round;"/>
     </g>
     <g id="text_6">
      <!-- 1.6 -->
      <g style="fill:#262626;" transform="translate(828.472252 776.873594)scale(0.11 -0.11)">
       <use xlink:href="#ArialMT-49"/>
       <use x="55.615234" xlink:href="#ArialMT-46"/>
       <use x="83.398438" xlink:href="#ArialMT-54"/>
      </g>
     </g>
    </g>
    <g id="text_7">
     <!-- Participants per Capita, logged -->
     <defs>
      <path d="M 7.71875 0 
L 7.71875 71.578125 
L 34.71875 71.578125 
Q 41.84375 71.578125 45.609375 70.90625 
Q 50.875 70.015625 54.4375 67.546875 
Q 58.015625 65.09375 60.1875 60.640625 
Q 62.359375 56.203125 62.359375 50.875 
Q 62.359375 41.75 56.546875 35.421875 
Q 50.734375 29.109375 35.546875 29.109375 
L 17.1875 29.109375 
L 17.1875 0 
z
M 17.1875 37.546875 
L 35.6875 37.546875 
Q 44.875 37.546875 48.734375 40.96875 
Q 52.59375 44.390625 52.59375 50.59375 
Q 52.59375 55.078125 50.3125 58.265625 
Q 48.046875 61.46875 44.34375 62.5 
Q 41.9375 63.140625 35.5 63.140625 
L 17.1875 63.140625 
z
" id="ArialMT-80"/>
      <path d="M 40.4375 6.390625 
Q 35.546875 2.25 31.03125 0.53125 
Q 26.515625 -1.171875 21.34375 -1.171875 
Q 12.796875 -1.171875 8.203125 3 
Q 3.609375 7.171875 3.609375 13.671875 
Q 3.609375 17.484375 5.34375 20.625 
Q 7.078125 23.78125 9.890625 25.6875 
Q 12.703125 27.59375 16.21875 28.5625 
Q 18.796875 29.25 24.03125 29.890625 
Q 34.671875 31.15625 39.703125 32.90625 
Q 39.75 34.71875 39.75 35.203125 
Q 39.75 40.578125 37.25 42.78125 
Q 33.890625 45.75 27.25 45.75 
Q 21.046875 45.75 18.09375 43.578125 
Q 15.140625 41.40625 13.71875 35.890625 
L 5.125 37.0625 
Q 6.296875 42.578125 8.984375 45.96875 
Q 11.671875 49.359375 16.75 51.1875 
Q 21.828125 53.03125 28.515625 53.03125 
Q 35.15625 53.03125 39.296875 51.46875 
Q 43.453125 49.90625 45.40625 47.53125 
Q 47.359375 45.171875 48.140625 41.546875 
Q 48.578125 39.3125 48.578125 33.453125 
L 48.578125 21.734375 
Q 48.578125 9.46875 49.140625 6.21875 
Q 49.703125 2.984375 51.375 0 
L 42.1875 0 
Q 40.828125 2.734375 40.4375 6.390625 
z
M 39.703125 26.03125 
Q 34.90625 24.078125 25.34375 22.703125 
Q 19.921875 21.921875 17.671875 20.9375 
Q 15.4375 19.96875 14.203125 18.09375 
Q 12.984375 16.21875 12.984375 13.921875 
Q 12.984375 10.40625 15.640625 8.0625 
Q 18.3125 5.71875 23.4375 5.71875 
Q 28.515625 5.71875 32.46875 7.9375 
Q 36.421875 10.15625 38.28125 14.015625 
Q 39.703125 17 39.703125 22.796875 
z
" id="ArialMT-97"/>
      <path d="M 6.5 0 
L 6.5 51.859375 
L 14.40625 51.859375 
L 14.40625 44 
Q 17.4375 49.515625 20 51.265625 
Q 22.5625 53.03125 25.640625 53.03125 
Q 30.078125 53.03125 34.671875 50.203125 
L 31.640625 42.046875 
Q 28.421875 43.953125 25.203125 43.953125 
Q 22.3125 43.953125 20.015625 42.21875 
Q 17.71875 40.484375 16.75 37.40625 
Q 15.28125 32.71875 15.28125 27.15625 
L 15.28125 0 
z
" id="ArialMT-114"/>
      <path d="M 25.78125 7.859375 
L 27.046875 0.09375 
Q 23.34375 -0.6875 20.40625 -0.6875 
Q 15.625 -0.6875 12.984375 0.828125 
Q 10.359375 2.34375 9.28125 4.8125 
Q 8.203125 7.28125 8.203125 15.1875 
L 8.203125 45.015625 
L 1.765625 45.015625 
L 1.765625 51.859375 
L 8.203125 51.859375 
L 8.203125 64.703125 
L 16.9375 69.96875 
L 16.9375 51.859375 
L 25.78125 51.859375 
L 25.78125 45.015625 
L 16.9375 45.015625 
L 16.9375 14.703125 
Q 16.9375 10.9375 17.40625 9.859375 
Q 17.875 8.796875 18.921875 8.15625 
Q 19.96875 7.515625 21.921875 7.515625 
Q 23.390625 7.515625 25.78125 7.859375 
z
" id="ArialMT-116"/>
      <path d="M 6.640625 61.46875 
L 6.640625 71.578125 
L 15.4375 71.578125 
L 15.4375 61.46875 
z
M 6.640625 0 
L 6.640625 51.859375 
L 15.4375 51.859375 
L 15.4375 0 
z
" id="ArialMT-105"/>
      <path d="M 40.4375 19 
L 49.078125 17.875 
Q 47.65625 8.9375 41.8125 3.875 
Q 35.984375 -1.171875 27.484375 -1.171875 
Q 16.84375 -1.171875 10.375 5.78125 
Q 3.90625 12.75 3.90625 25.734375 
Q 3.90625 34.125 6.6875 40.421875 
Q 9.46875 46.734375 15.15625 49.875 
Q 20.84375 53.03125 27.546875 53.03125 
Q 35.984375 53.03125 41.359375 48.75 
Q 46.734375 44.484375 48.25 36.625 
L 39.703125 35.296875 
Q 38.484375 40.53125 35.375 43.15625 
Q 32.28125 45.796875 27.875 45.796875 
Q 21.234375 45.796875 17.078125 41.03125 
Q 12.9375 36.28125 12.9375 25.984375 
Q 12.9375 15.53125 16.9375 10.796875 
Q 20.953125 6.0625 27.390625 6.0625 
Q 32.5625 6.0625 36.03125 9.234375 
Q 39.5 12.40625 40.4375 19 
z
" id="ArialMT-99"/>
      <path d="M 6.59375 -19.875 
L 6.59375 51.859375 
L 14.59375 51.859375 
L 14.59375 45.125 
Q 17.4375 49.078125 21 51.046875 
Q 24.5625 53.03125 29.640625 53.03125 
Q 36.28125 53.03125 41.359375 49.609375 
Q 46.4375 46.1875 49.015625 39.953125 
Q 51.609375 33.734375 51.609375 26.3125 
Q 51.609375 18.359375 48.75 11.984375 
Q 45.90625 5.609375 40.453125 2.21875 
Q 35.015625 -1.171875 29 -1.171875 
Q 24.609375 -1.171875 21.109375 0.6875 
Q 17.625 2.546875 15.375 5.375 
L 15.375 -19.875 
z
M 14.546875 25.640625 
Q 14.546875 15.625 18.59375 10.84375 
Q 22.65625 6.0625 28.421875 6.0625 
Q 34.28125 6.0625 38.453125 11.015625 
Q 42.625 15.96875 42.625 26.375 
Q 42.625 36.28125 38.546875 41.203125 
Q 34.46875 46.140625 28.8125 46.140625 
Q 23.1875 46.140625 18.859375 40.890625 
Q 14.546875 35.640625 14.546875 25.640625 
z
" id="ArialMT-112"/>
      <path d="M 6.59375 0 
L 6.59375 51.859375 
L 14.5 51.859375 
L 14.5 44.484375 
Q 20.21875 53.03125 31 53.03125 
Q 35.6875 53.03125 39.625 51.34375 
Q 43.5625 49.65625 45.515625 46.921875 
Q 47.46875 44.1875 48.25 40.4375 
Q 48.734375 37.984375 48.734375 31.890625 
L 48.734375 0 
L 39.9375 0 
L 39.9375 31.546875 
Q 39.9375 36.921875 38.90625 39.578125 
Q 37.890625 42.234375 35.28125 43.8125 
Q 32.671875 45.40625 29.15625 45.40625 
Q 23.53125 45.40625 19.453125 41.84375 
Q 15.375 38.28125 15.375 28.328125 
L 15.375 0 
z
" id="ArialMT-110"/>
      <path d="M 3.078125 15.484375 
L 11.765625 16.84375 
Q 12.5 11.625 15.84375 8.84375 
Q 19.1875 6.0625 25.203125 6.0625 
Q 31.25 6.0625 34.171875 8.515625 
Q 37.109375 10.984375 37.109375 14.3125 
Q 37.109375 17.28125 34.515625 19 
Q 32.71875 20.171875 25.53125 21.96875 
Q 15.875 24.421875 12.140625 26.203125 
Q 8.40625 27.984375 6.46875 31.125 
Q 4.546875 34.28125 4.546875 38.09375 
Q 4.546875 41.546875 6.125 44.5 
Q 7.71875 47.46875 10.453125 49.421875 
Q 12.5 50.921875 16.03125 51.96875 
Q 19.578125 53.03125 23.640625 53.03125 
Q 29.734375 53.03125 34.34375 51.265625 
Q 38.96875 49.515625 41.15625 46.5 
Q 43.359375 43.5 44.1875 38.484375 
L 35.59375 37.3125 
Q 35.015625 41.3125 32.203125 43.546875 
Q 29.390625 45.796875 24.265625 45.796875 
Q 18.21875 45.796875 15.625 43.796875 
Q 13.03125 41.796875 13.03125 39.109375 
Q 13.03125 37.40625 14.109375 36.03125 
Q 15.1875 34.625 17.484375 33.6875 
Q 18.796875 33.203125 25.25 31.453125 
Q 34.578125 28.953125 38.25 27.359375 
Q 41.9375 25.78125 44.03125 22.75 
Q 46.140625 19.734375 46.140625 15.234375 
Q 46.140625 10.84375 43.578125 6.953125 
Q 41.015625 3.078125 36.171875 0.953125 
Q 31.34375 -1.171875 25.25 -1.171875 
Q 15.140625 -1.171875 9.84375 3.03125 
Q 4.546875 7.234375 3.078125 15.484375 
z
" id="ArialMT-115"/>
      <path id="ArialMT-32"/>
      <path d="M 42.09375 16.703125 
L 51.171875 15.578125 
Q 49.03125 7.625 43.21875 3.21875 
Q 37.40625 -1.171875 28.375 -1.171875 
Q 17 -1.171875 10.328125 5.828125 
Q 3.65625 12.84375 3.65625 25.484375 
Q 3.65625 38.578125 10.390625 45.796875 
Q 17.140625 53.03125 27.875 53.03125 
Q 38.28125 53.03125 44.875 45.953125 
Q 51.46875 38.875 51.46875 26.03125 
Q 51.46875 25.25 51.421875 23.6875 
L 12.75 23.6875 
Q 13.234375 15.140625 17.578125 10.59375 
Q 21.921875 6.0625 28.421875 6.0625 
Q 33.25 6.0625 36.671875 8.59375 
Q 40.09375 11.140625 42.09375 16.703125 
z
M 13.234375 30.90625 
L 42.1875 30.90625 
Q 41.609375 37.453125 38.875 40.71875 
Q 34.671875 45.796875 27.984375 45.796875 
Q 21.921875 45.796875 17.796875 41.75 
Q 13.671875 37.703125 13.234375 30.90625 
z
" id="ArialMT-101"/>
      <path d="M 58.796875 25.09375 
L 68.265625 22.703125 
Q 65.28125 11.03125 57.546875 4.90625 
Q 49.8125 -1.21875 38.625 -1.21875 
Q 27.046875 -1.21875 19.796875 3.484375 
Q 12.546875 8.203125 8.765625 17.140625 
Q 4.984375 26.078125 4.984375 36.328125 
Q 4.984375 47.515625 9.25 55.828125 
Q 13.53125 64.15625 21.40625 68.46875 
Q 29.296875 72.796875 38.765625 72.796875 
Q 49.515625 72.796875 56.828125 67.328125 
Q 64.15625 61.859375 67.046875 51.953125 
L 57.71875 49.75 
Q 55.21875 57.5625 50.484375 61.125 
Q 45.75 64.703125 38.578125 64.703125 
Q 30.328125 64.703125 24.78125 60.734375 
Q 19.234375 56.78125 16.984375 50.109375 
Q 14.75 43.453125 14.75 36.375 
Q 14.75 27.25 17.40625 20.4375 
Q 20.0625 13.625 25.671875 10.25 
Q 31.296875 6.890625 37.84375 6.890625 
Q 45.796875 6.890625 51.3125 11.46875 
Q 56.84375 16.0625 58.796875 25.09375 
z
" id="ArialMT-67"/>
      <path d="M 8.890625 0 
L 8.890625 10.015625 
L 18.890625 10.015625 
L 18.890625 0 
Q 18.890625 -5.515625 16.9375 -8.90625 
Q 14.984375 -12.3125 10.75 -14.15625 
L 8.296875 -10.40625 
Q 11.078125 -9.1875 12.390625 -6.8125 
Q 13.71875 -4.4375 13.875 0 
z
" id="ArialMT-44"/>
      <path d="M 6.390625 0 
L 6.390625 71.578125 
L 15.1875 71.578125 
L 15.1875 0 
z
" id="ArialMT-108"/>
      <path d="M 3.328125 25.921875 
Q 3.328125 40.328125 11.328125 47.265625 
Q 18.015625 53.03125 27.640625 53.03125 
Q 38.328125 53.03125 45.109375 46.015625 
Q 51.90625 39.015625 51.90625 26.65625 
Q 51.90625 16.65625 48.90625 10.90625 
Q 45.90625 5.171875 40.15625 2 
Q 34.421875 -1.171875 27.640625 -1.171875 
Q 16.75 -1.171875 10.03125 5.8125 
Q 3.328125 12.796875 3.328125 25.921875 
z
M 12.359375 25.921875 
Q 12.359375 15.96875 16.703125 11.015625 
Q 21.046875 6.0625 27.640625 6.0625 
Q 34.1875 6.0625 38.53125 11.03125 
Q 42.875 16.015625 42.875 26.21875 
Q 42.875 35.84375 38.5 40.796875 
Q 34.125 45.75 27.640625 45.75 
Q 21.046875 45.75 16.703125 40.8125 
Q 12.359375 35.890625 12.359375 25.921875 
z
" id="ArialMT-111"/>
      <path d="M 4.984375 -4.296875 
L 13.53125 -5.5625 
Q 14.0625 -9.515625 16.5 -11.328125 
Q 19.78125 -13.765625 25.4375 -13.765625 
Q 31.546875 -13.765625 34.859375 -11.328125 
Q 38.1875 -8.890625 39.359375 -4.5 
Q 40.046875 -1.8125 39.984375 6.78125 
Q 34.234375 0 25.640625 0 
Q 14.9375 0 9.078125 7.71875 
Q 3.21875 15.4375 3.21875 26.21875 
Q 3.21875 33.640625 5.90625 39.90625 
Q 8.59375 46.1875 13.6875 49.609375 
Q 18.796875 53.03125 25.6875 53.03125 
Q 34.859375 53.03125 40.828125 45.609375 
L 40.828125 51.859375 
L 48.921875 51.859375 
L 48.921875 7.03125 
Q 48.921875 -5.078125 46.453125 -10.125 
Q 44 -15.1875 38.640625 -18.109375 
Q 33.296875 -21.046875 25.484375 -21.046875 
Q 16.21875 -21.046875 10.5 -16.875 
Q 4.78125 -12.703125 4.984375 -4.296875 
z
M 12.25 26.859375 
Q 12.25 16.65625 16.296875 11.96875 
Q 20.359375 7.28125 26.46875 7.28125 
Q 32.515625 7.28125 36.609375 11.9375 
Q 40.71875 16.609375 40.71875 26.5625 
Q 40.71875 36.078125 36.5 40.90625 
Q 32.28125 45.75 26.3125 45.75 
Q 20.453125 45.75 16.34375 40.984375 
Q 12.25 36.234375 12.25 26.859375 
z
" id="ArialMT-103"/>
      <path d="M 40.234375 0 
L 40.234375 6.546875 
Q 35.296875 -1.171875 25.734375 -1.171875 
Q 19.53125 -1.171875 14.328125 2.25 
Q 9.125 5.671875 6.265625 11.796875 
Q 3.421875 17.921875 3.421875 25.875 
Q 3.421875 33.640625 6 39.96875 
Q 8.59375 46.296875 13.765625 49.65625 
Q 18.953125 53.03125 25.34375 53.03125 
Q 30.03125 53.03125 33.6875 51.046875 
Q 37.359375 49.078125 39.65625 45.90625 
L 39.65625 71.578125 
L 48.390625 71.578125 
L 48.390625 0 
z
M 12.453125 25.875 
Q 12.453125 15.921875 16.640625 10.984375 
Q 20.84375 6.0625 26.5625 6.0625 
Q 32.328125 6.0625 36.34375 10.765625 
Q 40.375 15.484375 40.375 25.140625 
Q 40.375 35.796875 36.265625 40.765625 
Q 32.171875 45.75 26.171875 45.75 
Q 20.3125 45.75 16.375 40.96875 
Q 12.453125 36.1875 12.453125 25.875 
z
" id="ArialMT-100"/>
     </defs>
     <g style="fill:#262626;" transform="translate(409.72875 794.707344)scale(0.16 -0.16)">
      <use xlink:href="#ArialMT-80"/>
      <use x="66.699219" xlink:href="#ArialMT-97"/>
      <use x="122.314453" xlink:href="#ArialMT-114"/>
      <use x="155.615234" xlink:href="#ArialMT-116"/>
      <use x="183.398438" xlink:href="#ArialMT-105"/>
      <use x="205.615234" xlink:href="#ArialMT-99"/>
      <use x="255.615234" xlink:href="#ArialMT-105"/>
      <use x="277.832031" xlink:href="#ArialMT-112"/>
      <use x="333.447266" xlink:href="#ArialMT-97"/>
      <use x="389.0625" xlink:href="#ArialMT-110"/>
      <use x="444.677734" xlink:href="#ArialMT-116"/>
      <use x="472.460938" xlink:href="#ArialMT-115"/>
      <use x="522.460938" xlink:href="#ArialMT-32"/>
      <use x="550.244141" xlink:href="#ArialMT-112"/>
      <use x="605.859375" xlink:href="#ArialMT-101"/>
      <use x="661.474609" xlink:href="#ArialMT-114"/>
      <use x="694.775391" xlink:href="#ArialMT-32"/>
      <use x="722.558594" xlink:href="#ArialMT-67"/>
      <use x="794.775391" xlink:href="#ArialMT-97"/>
      <use x="850.390625" xlink:href="#ArialMT-112"/>
      <use x="906.005859" xlink:href="#ArialMT-105"/>
      <use x="928.222656" xlink:href="#ArialMT-116"/>
      <use x="956.005859" xlink:href="#ArialMT-97"/>
      <use x="1011.621094" xlink:href="#ArialMT-44"/>
      <use x="1039.404297" xlink:href="#ArialMT-32"/>
      <use x="1067.1875" xlink:href="#ArialMT-108"/>
      <use x="1089.404297" xlink:href="#ArialMT-111"/>
      <use x="1145.019531" xlink:href="#ArialMT-103"/>
      <use x="1200.634766" xlink:href="#ArialMT-103"/>
      <use x="1256.25" xlink:href="#ArialMT-101"/>
      <use x="1311.865234" xlink:href="#ArialMT-100"/>
     </g>
    </g>
   </g>
   <g id="matplotlib.axis_2">
    <g id="ytick_1">
     <g id="line2d_7">
      <path clip-path="url(#p9dc0887031)" d="M 80.64 646.485404 
L 957.6 646.485404 
" style="fill:none;stroke:#cccccc;stroke-linecap:round;"/>
     </g>
     <g id="text_8">
      <!-- 0.2 -->
      <g style="fill:#262626;" transform="translate(52.35 650.422201)scale(0.11 -0.11)">
       <use xlink:href="#ArialMT-48"/>
       <use x="55.615234" xlink:href="#ArialMT-46"/>
       <use x="83.398438" xlink:href="#ArialMT-50"/>
      </g>
     </g>
    </g>
    <g id="ytick_2">
     <g id="line2d_8">
      <path clip-path="url(#p9dc0887031)" d="M 80.64 506.206013 
L 957.6 506.206013 
" style="fill:none;stroke:#cccccc;stroke-linecap:round;"/>
     </g>
     <g id="text_9">
      <!-- 0.4 -->
      <g style="fill:#262626;" transform="translate(52.35 510.142809)scale(0.11 -0.11)">
       <use xlink:href="#ArialMT-48"/>
       <use x="55.615234" xlink:href="#ArialMT-46"/>
       <use x="83.398438" xlink:href="#ArialMT-52"/>
      </g>
     </g>
    </g>
    <g id="ytick_3">
     <g id="line2d_9">
      <path clip-path="url(#p9dc0887031)" d="M 80.64 365.926621 
L 957.6 365.926621 
" style="fill:none;stroke:#cccccc;stroke-linecap:round;"/>
     </g>
     <g id="text_10">
      <!-- 0.6 -->
      <g style="fill:#262626;" transform="translate(52.35 369.863418)scale(0.11 -0.11)">
       <use xlink:href="#ArialMT-48"/>
       <use x="55.615234" xlink:href="#ArialMT-46"/>
       <use x="83.398438" xlink:href="#ArialMT-54"/>
      </g>
     </g>
    </g>
    <g id="ytick_4">
     <g id="line2d_10">
      <path clip-path="url(#p9dc0887031)" d="M 80.64 225.64723 
L 957.6 225.64723 
" style="fill:none;stroke:#cccccc;stroke-linecap:round;"/>
     </g>
     <g id="text_11">
      <!-- 0.8 -->
      <g style="fill:#262626;" transform="translate(52.35 229.584027)scale(0.11 -0.11)">
       <use xlink:href="#ArialMT-48"/>
       <use x="55.615234" xlink:href="#ArialMT-46"/>
       <use x="83.398438" xlink:href="#ArialMT-56"/>
      </g>
     </g>
    </g>
    <g id="text_12">
     <!-- Probability of Success -->
     <defs>
      <path d="M 14.703125 0 
L 6.546875 0 
L 6.546875 71.578125 
L 15.328125 71.578125 
L 15.328125 46.046875 
Q 20.90625 53.03125 29.546875 53.03125 
Q 34.328125 53.03125 38.59375 51.09375 
Q 42.875 49.171875 45.625 45.671875 
Q 48.390625 42.1875 49.953125 37.25 
Q 51.515625 32.328125 51.515625 26.703125 
Q 51.515625 13.375 44.921875 6.09375 
Q 38.328125 -1.171875 29.109375 -1.171875 
Q 19.921875 -1.171875 14.703125 6.5 
z
M 14.59375 26.3125 
Q 14.59375 17 17.140625 12.84375 
Q 21.296875 6.0625 28.375 6.0625 
Q 34.125 6.0625 38.328125 11.0625 
Q 42.53125 16.0625 42.53125 25.984375 
Q 42.53125 36.140625 38.5 40.96875 
Q 34.46875 45.796875 28.765625 45.796875 
Q 23 45.796875 18.796875 40.796875 
Q 14.59375 35.796875 14.59375 26.3125 
z
" id="ArialMT-98"/>
      <path d="M 6.203125 -19.96875 
L 5.21875 -11.71875 
Q 8.109375 -12.5 10.25 -12.5 
Q 13.1875 -12.5 14.9375 -11.515625 
Q 16.703125 -10.546875 17.828125 -8.796875 
Q 18.65625 -7.46875 20.515625 -2.25 
Q 20.75 -1.515625 21.296875 -0.09375 
L 1.609375 51.859375 
L 11.078125 51.859375 
L 21.875 21.828125 
Q 23.96875 16.109375 25.640625 9.8125 
Q 27.15625 15.875 29.25 21.625 
L 40.328125 51.859375 
L 49.125 51.859375 
L 29.390625 -0.875 
Q 26.21875 -9.421875 24.46875 -12.640625 
Q 22.125 -17 19.09375 -19.015625 
Q 16.0625 -21.046875 11.859375 -21.046875 
Q 9.328125 -21.046875 6.203125 -19.96875 
z
" id="ArialMT-121"/>
      <path d="M 8.6875 0 
L 8.6875 45.015625 
L 0.921875 45.015625 
L 0.921875 51.859375 
L 8.6875 51.859375 
L 8.6875 57.375 
Q 8.6875 62.59375 9.625 65.140625 
Q 10.890625 68.5625 14.078125 70.671875 
Q 17.28125 72.796875 23.046875 72.796875 
Q 26.765625 72.796875 31.25 71.921875 
L 29.9375 64.265625 
Q 27.203125 64.75 24.75 64.75 
Q 20.75 64.75 19.09375 63.03125 
Q 17.4375 61.328125 17.4375 56.640625 
L 17.4375 51.859375 
L 27.546875 51.859375 
L 27.546875 45.015625 
L 17.4375 45.015625 
L 17.4375 0 
z
" id="ArialMT-102"/>
      <path d="M 4.5 23 
L 13.421875 23.78125 
Q 14.0625 18.40625 16.375 14.96875 
Q 18.703125 11.53125 23.578125 9.40625 
Q 28.46875 7.28125 34.578125 7.28125 
Q 39.984375 7.28125 44.140625 8.890625 
Q 48.296875 10.5 50.3125 13.296875 
Q 52.34375 16.109375 52.34375 19.4375 
Q 52.34375 22.796875 50.390625 25.3125 
Q 48.4375 27.828125 43.953125 29.546875 
Q 41.0625 30.671875 31.203125 33.03125 
Q 21.34375 35.40625 17.390625 37.5 
Q 12.25 40.1875 9.734375 44.15625 
Q 7.234375 48.140625 7.234375 53.078125 
Q 7.234375 58.5 10.296875 63.203125 
Q 13.375 67.921875 19.28125 70.359375 
Q 25.203125 72.796875 32.421875 72.796875 
Q 40.375 72.796875 46.453125 70.234375 
Q 52.546875 67.671875 55.8125 62.6875 
Q 59.078125 57.71875 59.328125 51.421875 
L 50.25 50.734375 
Q 49.515625 57.515625 45.28125 60.984375 
Q 41.0625 64.453125 32.8125 64.453125 
Q 24.21875 64.453125 20.28125 61.296875 
Q 16.359375 58.15625 16.359375 53.71875 
Q 16.359375 49.859375 19.140625 47.359375 
Q 21.875 44.875 33.421875 42.265625 
Q 44.96875 39.65625 49.265625 37.703125 
Q 55.515625 34.8125 58.484375 30.390625 
Q 61.46875 25.984375 61.46875 20.21875 
Q 61.46875 14.5 58.203125 9.4375 
Q 54.9375 4.390625 48.796875 1.578125 
Q 42.671875 -1.21875 35.015625 -1.21875 
Q 25.296875 -1.21875 18.71875 1.609375 
Q 12.15625 4.4375 8.421875 10.125 
Q 4.6875 15.828125 4.5 23 
z
" id="ArialMT-83"/>
      <path d="M 40.578125 0 
L 40.578125 7.625 
Q 34.515625 -1.171875 24.125 -1.171875 
Q 19.53125 -1.171875 15.546875 0.578125 
Q 11.578125 2.34375 9.640625 5 
Q 7.71875 7.671875 6.9375 11.53125 
Q 6.390625 14.109375 6.390625 19.734375 
L 6.390625 51.859375 
L 15.1875 51.859375 
L 15.1875 23.09375 
Q 15.1875 16.21875 15.71875 13.8125 
Q 16.546875 10.359375 19.234375 8.375 
Q 21.921875 6.390625 25.875 6.390625 
Q 29.828125 6.390625 33.296875 8.421875 
Q 36.765625 10.453125 38.203125 13.9375 
Q 39.65625 17.4375 39.65625 24.078125 
L 39.65625 51.859375 
L 48.4375 51.859375 
L 48.4375 0 
z
" id="ArialMT-117"/>
     </defs>
     <g style="fill:#262626;" transform="translate(44.9825 508.54)rotate(-90)scale(0.16 -0.16)">
      <use xlink:href="#ArialMT-80"/>
      <use x="66.699219" xlink:href="#ArialMT-114"/>
      <use x="100" xlink:href="#ArialMT-111"/>
      <use x="155.615234" xlink:href="#ArialMT-98"/>
      <use x="211.230469" xlink:href="#ArialMT-97"/>
      <use x="266.845703" xlink:href="#ArialMT-98"/>
      <use x="322.460938" xlink:href="#ArialMT-105"/>
      <use x="344.677734" xlink:href="#ArialMT-108"/>
      <use x="366.894531" xlink:href="#ArialMT-105"/>
      <use x="389.111328" xlink:href="#ArialMT-116"/>
      <use x="416.894531" xlink:href="#ArialMT-121"/>
      <use x="466.894531" xlink:href="#ArialMT-32"/>
      <use x="494.677734" xlink:href="#ArialMT-111"/>
      <use x="550.292969" xlink:href="#ArialMT-102"/>
      <use x="578.076172" xlink:href="#ArialMT-32"/>
      <use x="605.859375" xlink:href="#ArialMT-83"/>
      <use x="672.558594" xlink:href="#ArialMT-117"/>
      <use x="728.173828" xlink:href="#ArialMT-99"/>
      <use x="778.173828" xlink:href="#ArialMT-99"/>
      <use x="828.173828" xlink:href="#ArialMT-101"/>
      <use x="883.789062" xlink:href="#ArialMT-115"/>
      <use x="933.789062" xlink:href="#ArialMT-115"/>
     </g>
    </g>
   </g>
   <g id="PathCollection_1">
    <defs>
     <path d="M 0 3 
C 0.795609 3 1.55874 2.683901 2.12132 2.12132 
C 2.683901 1.55874 3 0.795609 3 0 
C 3 -0.795609 2.683901 -1.55874 2.12132 -2.12132 
C 1.55874 -2.683901 0.795609 -3 0 -3 
C -0.795609 -3 -1.55874 -2.683901 -2.12132 -2.12132 
C -2.683901 -1.55874 -3 -0.795609 -3 0 
C -3 0.795609 -2.683901 1.55874 -2.12132 2.12132 
C -1.55874 2.683901 -0.795609 3 0 3 
z
" id="m5672dd5af9" style="stroke:#4c72b0;"/>
    </defs>
    <g clip-path="url(#p9dc0887031)">
     <use style="fill:#4c72b0;stroke:#4c72b0;" x="576.543409" xlink:href="#m5672dd5af9" y="352.198326"/>
     <use style="fill:#4c72b0;stroke:#4c72b0;" x="558.369258" xlink:href="#m5672dd5af9" y="375.438865"/>
     <use style="fill:#4c72b0;stroke:#4c72b0;" x="419.588583" xlink:href="#m5672dd5af9" y="485.200536"/>
     <use style="fill:#4c72b0;stroke:#4c72b0;" x="238.75239" xlink:href="#m5672dd5af9" y="683.71988"/>
     <use style="fill:#4c72b0;stroke:#4c72b0;" x="269.143503" xlink:href="#m5672dd5af9" y="653.598629"/>
     <use style="fill:#4c72b0;stroke:#4c72b0;" x="434.813743" xlink:href="#m5672dd5af9" y="514.602205"/>
     <use style="fill:#4c72b0;stroke:#4c72b0;" x="431.126074" xlink:href="#m5672dd5af9" y="528.057035"/>
     <use style="fill:#4c72b0;stroke:#4c72b0;" x="533.762108" xlink:href="#m5672dd5af9" y="409.475602"/>
     <use style="fill:#4c72b0;stroke:#4c72b0;" x="261.651327" xlink:href="#m5672dd5af9" y="673.042761"/>
     <use style="fill:#4c72b0;stroke:#4c72b0;" x="310.292465" xlink:href="#m5672dd5af9" y="626.11064"/>
     <use style="fill:#4c72b0;stroke:#4c72b0;" x="563.991355" xlink:href="#m5672dd5af9" y="346.439721"/>
     <use style="fill:#4c72b0;stroke:#4c72b0;" x="620.391349" xlink:href="#m5672dd5af9" y="338.793147"/>
     <use style="fill:#4c72b0;stroke:#4c72b0;" x="310.45346" xlink:href="#m5672dd5af9" y="613.485977"/>
     <use style="fill:#4c72b0;stroke:#4c72b0;" x="125.438362" xlink:href="#m5672dd5af9" y="723.123387"/>
     <use style="fill:#4c72b0;stroke:#4c72b0;" x="462.017545" xlink:href="#m5672dd5af9" y="458.367201"/>
     <use style="fill:#4c72b0;stroke:#4c72b0;" x="536.85895" xlink:href="#m5672dd5af9" y="349.682508"/>
     <use style="fill:#4c72b0;stroke:#4c72b0;" x="714.093092" xlink:href="#m5672dd5af9" y="220.541215"/>
     <use style="fill:#4c72b0;stroke:#4c72b0;" x="269.899346" xlink:href="#m5672dd5af9" y="644.332165"/>
     <use style="fill:#4c72b0;stroke:#4c72b0;" x="348.008664" xlink:href="#m5672dd5af9" y="577.779681"/>
     <use style="fill:#4c72b0;stroke:#4c72b0;" x="423.981097" xlink:href="#m5672dd5af9" y="534.36527"/>
     <use style="fill:#4c72b0;stroke:#4c72b0;" x="663.57491" xlink:href="#m5672dd5af9" y="277.420257"/>
     <use style="fill:#4c72b0;stroke:#4c72b0;" x="459.296758" xlink:href="#m5672dd5af9" y="484.753871"/>
     <use style="fill:#4c72b0;stroke:#4c72b0;" x="507.217627" xlink:href="#m5672dd5af9" y="406.874042"/>
     <use style="fill:#4c72b0;stroke:#4c72b0;" x="339.966708" xlink:href="#m5672dd5af9" y="583.567636"/>
     <use style="fill:#4c72b0;stroke:#4c72b0;" x="437.176551" xlink:href="#m5672dd5af9" y="480.628574"/>
     <use style="fill:#4c72b0;stroke:#4c72b0;" x="503.219826" xlink:href="#m5672dd5af9" y="427.578354"/>
     <use style="fill:#4c72b0;stroke:#4c72b0;" x="711.022122" xlink:href="#m5672dd5af9" y="224.808824"/>
     <use style="fill:#4c72b0;stroke:#4c72b0;" x="674.408468" xlink:href="#m5672dd5af9" y="262.780064"/>
     <use style="fill:#4c72b0;stroke:#4c72b0;" x="431.879927" xlink:href="#m5672dd5af9" y="506.294291"/>
     <use style="fill:#4c72b0;stroke:#4c72b0;" x="414.231467" xlink:href="#m5672dd5af9" y="525.052412"/>
     <use style="fill:#4c72b0;stroke:#4c72b0;" x="406.325837" xlink:href="#m5672dd5af9" y="533.367062"/>
     <use style="fill:#4c72b0;stroke:#4c72b0;" x="638.90142" xlink:href="#m5672dd5af9" y="283.636924"/>
     <use style="fill:#4c72b0;stroke:#4c72b0;" x="732.916696" xlink:href="#m5672dd5af9" y="211.561621"/>
     <use style="fill:#4c72b0;stroke:#4c72b0;" x="321.535082" xlink:href="#m5672dd5af9" y="615.892552"/>
     <use style="fill:#4c72b0;stroke:#4c72b0;" x="316.359899" xlink:href="#m5672dd5af9" y="631.366731"/>
     <use style="fill:#4c72b0;stroke:#4c72b0;" x="575.653811" xlink:href="#m5672dd5af9" y="348.899698"/>
     <use style="fill:#4c72b0;stroke:#4c72b0;" x="519.850448" xlink:href="#m5672dd5af9" y="421.445445"/>
     <use style="fill:#4c72b0;stroke:#4c72b0;" x="521.346379" xlink:href="#m5672dd5af9" y="393.898873"/>
     <use style="fill:#4c72b0;stroke:#4c72b0;" x="373.907589" xlink:href="#m5672dd5af9" y="533.533012"/>
     <use style="fill:#4c72b0;stroke:#4c72b0;" x="509.508292" xlink:href="#m5672dd5af9" y="377.848199"/>
     <use style="fill:#4c72b0;stroke:#4c72b0;" x="915.358569" xlink:href="#m5672dd5af9" y="136.556613"/>
     <use style="fill:#4c72b0;stroke:#4c72b0;" x="818.956603" xlink:href="#m5672dd5af9" y="171.372292"/>
     <use style="fill:#4c72b0;stroke:#4c72b0;" x="775.36813" xlink:href="#m5672dd5af9" y="192.232602"/>
     <use style="fill:#4c72b0;stroke:#4c72b0;" x="569.891326" xlink:href="#m5672dd5af9" y="330.272863"/>
     <use style="fill:#4c72b0;stroke:#4c72b0;" x="591.254612" xlink:href="#m5672dd5af9" y="330.782447"/>
     <use style="fill:#4c72b0;stroke:#4c72b0;" x="423.508685" xlink:href="#m5672dd5af9" y="525.238254"/>
     <use style="fill:#4c72b0;stroke:#4c72b0;" x="720.945517" xlink:href="#m5672dd5af9" y="225.060061"/>
     <use style="fill:#4c72b0;stroke:#4c72b0;" x="441.209843" xlink:href="#m5672dd5af9" y="501.282993"/>
     <use style="fill:#4c72b0;stroke:#4c72b0;" x="716.306556" xlink:href="#m5672dd5af9" y="250.883273"/>
     <use style="fill:#4c72b0;stroke:#4c72b0;" x="401.913214" xlink:href="#m5672dd5af9" y="540.823633"/>
     <use style="fill:#4c72b0;stroke:#4c72b0;" x="609.290032" xlink:href="#m5672dd5af9" y="315.1757"/>
     <use style="fill:#4c72b0;stroke:#4c72b0;" x="369.804891" xlink:href="#m5672dd5af9" y="571.615356"/>
     <use style="fill:#4c72b0;stroke:#4c72b0;" x="437.59299" xlink:href="#m5672dd5af9" y="504.534792"/>
     <use style="fill:#4c72b0;stroke:#4c72b0;" x="478.854976" xlink:href="#m5672dd5af9" y="446.21854"/>
     <use style="fill:#4c72b0;stroke:#4c72b0;" x="435.20232" xlink:href="#m5672dd5af9" y="524.418236"/>
     <use style="fill:#4c72b0;stroke:#4c72b0;" x="562.916175" xlink:href="#m5672dd5af9" y="385.25459"/>
     <use style="fill:#4c72b0;stroke:#4c72b0;" x="567.181402" xlink:href="#m5672dd5af9" y="381.137043"/>
     <use style="fill:#4c72b0;stroke:#4c72b0;" x="478.047887" xlink:href="#m5672dd5af9" y="473.46187"/>
     <use style="fill:#4c72b0;stroke:#4c72b0;" x="427.343956" xlink:href="#m5672dd5af9" y="523.928432"/>
     <use style="fill:#4c72b0;stroke:#4c72b0;" x="419.68154" xlink:href="#m5672dd5af9" y="495.713589"/>
     <use style="fill:#4c72b0;stroke:#4c72b0;" x="150.75011" xlink:href="#m5672dd5af9" y="706.114335"/>
     <use style="fill:#4c72b0;stroke:#4c72b0;" x="482.378872" xlink:href="#m5672dd5af9" y="413.617441"/>
     <use style="fill:#4c72b0;stroke:#4c72b0;" x="546.599914" xlink:href="#m5672dd5af9" y="341.46828"/>
     <use style="fill:#4c72b0;stroke:#4c72b0;" x="317.099158" xlink:href="#m5672dd5af9" y="630.899741"/>
     <use style="fill:#4c72b0;stroke:#4c72b0;" x="406.380649" xlink:href="#m5672dd5af9" y="542.040709"/>
     <use style="fill:#4c72b0;stroke:#4c72b0;" x="260.723336" xlink:href="#m5672dd5af9" y="662.905644"/>
     <use style="fill:#4c72b0;stroke:#4c72b0;" x="376.274833" xlink:href="#m5672dd5af9" y="556.342493"/>
     <use style="fill:#4c72b0;stroke:#4c72b0;" x="291.154873" xlink:href="#m5672dd5af9" y="628.448247"/>
     <use style="fill:#4c72b0;stroke:#4c72b0;" x="176.035736" xlink:href="#m5672dd5af9" y="698.213668"/>
     <use style="fill:#4c72b0;stroke:#4c72b0;" x="363.985437" xlink:href="#m5672dd5af9" y="555.411121"/>
     <use style="fill:#4c72b0;stroke:#4c72b0;" x="184.443797" xlink:href="#m5672dd5af9" y="704.847288"/>
     <use style="fill:#4c72b0;stroke:#4c72b0;" x="380.233453" xlink:href="#m5672dd5af9" y="554.782197"/>
     <use style="fill:#4c72b0;stroke:#4c72b0;" x="532.647042" xlink:href="#m5672dd5af9" y="399.72293"/>
     <use style="fill:#4c72b0;stroke:#4c72b0;" x="350.727543" xlink:href="#m5672dd5af9" y="595.767654"/>
     <use style="fill:#4c72b0;stroke:#4c72b0;" x="356.515112" xlink:href="#m5672dd5af9" y="591.546935"/>
     <use style="fill:#4c72b0;stroke:#4c72b0;" x="474.748878" xlink:href="#m5672dd5af9" y="464.399062"/>
     <use style="fill:#4c72b0;stroke:#4c72b0;" x="472.913709" xlink:href="#m5672dd5af9" y="466.117282"/>
     <use style="fill:#4c72b0;stroke:#4c72b0;" x="325.78132" xlink:href="#m5672dd5af9" y="616.122216"/>
     <use style="fill:#4c72b0;stroke:#4c72b0;" x="417.958068" xlink:href="#m5672dd5af9" y="529.44339"/>
     <use style="fill:#4c72b0;stroke:#4c72b0;" x="702.534539" xlink:href="#m5672dd5af9" y="268.166105"/>
     <use style="fill:#4c72b0;stroke:#4c72b0;" x="407.041463" xlink:href="#m5672dd5af9" y="510.065979"/>
     <use style="fill:#4c72b0;stroke:#4c72b0;" x="376.673817" xlink:href="#m5672dd5af9" y="545.54867"/>
     <use style="fill:#4c72b0;stroke:#4c72b0;" x="388.474672" xlink:href="#m5672dd5af9" y="529.867276"/>
     <use style="fill:#4c72b0;stroke:#4c72b0;" x="385.145728" xlink:href="#m5672dd5af9" y="582.446212"/>
     <use style="fill:#4c72b0;stroke:#4c72b0;" x="438.103215" xlink:href="#m5672dd5af9" y="502.123322"/>
     <use style="fill:#4c72b0;stroke:#4c72b0;" x="537.331943" xlink:href="#m5672dd5af9" y="388.45432"/>
     <use style="fill:#4c72b0;stroke:#4c72b0;" x="422.334578" xlink:href="#m5672dd5af9" y="518.035343"/>
     <use style="fill:#4c72b0;stroke:#4c72b0;" x="450.909263" xlink:href="#m5672dd5af9" y="482.158659"/>
     <use style="fill:#4c72b0;stroke:#4c72b0;" x="501.848031" xlink:href="#m5672dd5af9" y="432.647333"/>
     <use style="fill:#4c72b0;stroke:#4c72b0;" x="266.865525" xlink:href="#m5672dd5af9" y="659.766518"/>
     <use style="fill:#4c72b0;stroke:#4c72b0;" x="198.641085" xlink:href="#m5672dd5af9" y="697.582537"/>
     <use style="fill:#4c72b0;stroke:#4c72b0;" x="418.775855" xlink:href="#m5672dd5af9" y="521.130661"/>
     <use style="fill:#4c72b0;stroke:#4c72b0;" x="379.22884" xlink:href="#m5672dd5af9" y="554.006815"/>
     <use style="fill:#4c72b0;stroke:#4c72b0;" x="525.796442" xlink:href="#m5672dd5af9" y="380.459979"/>
     <use style="fill:#4c72b0;stroke:#4c72b0;" x="598.969768" xlink:href="#m5672dd5af9" y="354.260111"/>
     <use style="fill:#4c72b0;stroke:#4c72b0;" x="676.678733" xlink:href="#m5672dd5af9" y="249.280244"/>
     <use style="fill:#4c72b0;stroke:#4c72b0;" x="663.255988" xlink:href="#m5672dd5af9" y="256.866329"/>
     <use style="fill:#4c72b0;stroke:#4c72b0;" x="422.530028" xlink:href="#m5672dd5af9" y="515.131773"/>
     <use style="fill:#4c72b0;stroke:#4c72b0;" x="407.673502" xlink:href="#m5672dd5af9" y="509.924902"/>
     <use style="fill:#4c72b0;stroke:#4c72b0;" x="515.247475" xlink:href="#m5672dd5af9" y="412.204311"/>
     <use style="fill:#4c72b0;stroke:#4c72b0;" x="347.498894" xlink:href="#m5672dd5af9" y="604.245563"/>
     <use style="fill:#4c72b0;stroke:#4c72b0;" x="391.313085" xlink:href="#m5672dd5af9" y="544.271956"/>
     <use style="fill:#4c72b0;stroke:#4c72b0;" x="238.173214" xlink:href="#m5672dd5af9" y="662.675989"/>
     <use style="fill:#4c72b0;stroke:#4c72b0;" x="683.521622" xlink:href="#m5672dd5af9" y="231.908774"/>
     <use style="fill:#4c72b0;stroke:#4c72b0;" x="303.80117" xlink:href="#m5672dd5af9" y="607.830041"/>
     <use style="fill:#4c72b0;stroke:#4c72b0;" x="175.264677" xlink:href="#m5672dd5af9" y="698.471348"/>
     <use style="fill:#4c72b0;stroke:#4c72b0;" x="258.699019" xlink:href="#m5672dd5af9" y="643.508926"/>
     <use style="fill:#4c72b0;stroke:#4c72b0;" x="495.628309" xlink:href="#m5672dd5af9" y="434.730362"/>
     <use style="fill:#4c72b0;stroke:#4c72b0;" x="328.289119" xlink:href="#m5672dd5af9" y="601.733136"/>
     <use style="fill:#4c72b0;stroke:#4c72b0;" x="311.523913" xlink:href="#m5672dd5af9" y="615.912956"/>
     <use style="fill:#4c72b0;stroke:#4c72b0;" x="469.124128" xlink:href="#m5672dd5af9" y="455.190102"/>
     <use style="fill:#4c72b0;stroke:#4c72b0;" x="250.218236" xlink:href="#m5672dd5af9" y="647.857093"/>
     <use style="fill:#4c72b0;stroke:#4c72b0;" x="510.032945" xlink:href="#m5672dd5af9" y="421.141938"/>
     <use style="fill:#4c72b0;stroke:#4c72b0;" x="603.421157" xlink:href="#m5672dd5af9" y="335.981895"/>
     <use style="fill:#4c72b0;stroke:#4c72b0;" x="404.93327" xlink:href="#m5672dd5af9" y="550.72257"/>
     <use style="fill:#4c72b0;stroke:#4c72b0;" x="890.31516" xlink:href="#m5672dd5af9" y="140.596748"/>
     <use style="fill:#4c72b0;stroke:#4c72b0;" x="669.199577" xlink:href="#m5672dd5af9" y="281.510852"/>
     <use style="fill:#4c72b0;stroke:#4c72b0;" x="712.87371" xlink:href="#m5672dd5af9" y="232.374002"/>
     <use style="fill:#4c72b0;stroke:#4c72b0;" x="414.80318" xlink:href="#m5672dd5af9" y="524.560963"/>
     <use style="fill:#4c72b0;stroke:#4c72b0;" x="498.736926" xlink:href="#m5672dd5af9" y="470.332006"/>
     <use style="fill:#4c72b0;stroke:#4c72b0;" x="393.878266" xlink:href="#m5672dd5af9" y="542.169026"/>
     <use style="fill:#4c72b0;stroke:#4c72b0;" x="413.743963" xlink:href="#m5672dd5af9" y="515.005242"/>
     <use style="fill:#4c72b0;stroke:#4c72b0;" x="497.71548" xlink:href="#m5672dd5af9" y="441.746407"/>
     <use style="fill:#4c72b0;stroke:#4c72b0;" x="547.853296" xlink:href="#m5672dd5af9" y="390.678906"/>
     <use style="fill:#4c72b0;stroke:#4c72b0;" x="532.940009" xlink:href="#m5672dd5af9" y="404.93425"/>
     <use style="fill:#4c72b0;stroke:#4c72b0;" x="244.150179" xlink:href="#m5672dd5af9" y="629.792886"/>
     <use style="fill:#4c72b0;stroke:#4c72b0;" x="412.576075" xlink:href="#m5672dd5af9" y="464.178095"/>
     <use style="fill:#4c72b0;stroke:#4c72b0;" x="433.173941" xlink:href="#m5672dd5af9" y="437.766506"/>
     <use style="fill:#4c72b0;stroke:#4c72b0;" x="304.586492" xlink:href="#m5672dd5af9" y="571.990704"/>
     <use style="fill:#4c72b0;stroke:#4c72b0;" x="413.71722" xlink:href="#m5672dd5af9" y="453.703056"/>
     <use style="fill:#4c72b0;stroke:#4c72b0;" x="525.319551" xlink:href="#m5672dd5af9" y="426.674312"/>
     <use style="fill:#4c72b0;stroke:#4c72b0;" x="516.299188" xlink:href="#m5672dd5af9" y="398.534071"/>
     <use style="fill:#4c72b0;stroke:#4c72b0;" x="483.393269" xlink:href="#m5672dd5af9" y="428.675983"/>
     <use style="fill:#4c72b0;stroke:#4c72b0;" x="139.569104" xlink:href="#m5672dd5af9" y="699.152584"/>
     <use style="fill:#4c72b0;stroke:#4c72b0;" x="126.223892" xlink:href="#m5672dd5af9" y="702.683195"/>
     <use style="fill:#4c72b0;stroke:#4c72b0;" x="122.881431" xlink:href="#m5672dd5af9" y="706.067953"/>
     <use style="fill:#4c72b0;stroke:#4c72b0;" x="129.715986" xlink:href="#m5672dd5af9" y="699.653801"/>
     <use style="fill:#4c72b0;stroke:#4c72b0;" x="227.634779" xlink:href="#m5672dd5af9" y="665.226636"/>
     <use style="fill:#4c72b0;stroke:#4c72b0;" x="438.481095" xlink:href="#m5672dd5af9" y="470.496343"/>
     <use style="fill:#4c72b0;stroke:#4c72b0;" x="270.851385" xlink:href="#m5672dd5af9" y="632.38357"/>
     <use style="fill:#4c72b0;stroke:#4c72b0;" x="382.108798" xlink:href="#m5672dd5af9" y="527.04695"/>
     <use style="fill:#4c72b0;stroke:#4c72b0;" x="198.060499" xlink:href="#m5672dd5af9" y="677.600844"/>
     <use style="fill:#4c72b0;stroke:#4c72b0;" x="174.84832" xlink:href="#m5672dd5af9" y="690.871713"/>
     <use style="fill:#4c72b0;stroke:#4c72b0;" x="137.801435" xlink:href="#m5672dd5af9" y="709.733785"/>
     <use style="fill:#4c72b0;stroke:#4c72b0;" x="287.06793" xlink:href="#m5672dd5af9" y="639.418007"/>
     <use style="fill:#4c72b0;stroke:#4c72b0;" x="585.671655" xlink:href="#m5672dd5af9" y="327.585073"/>
     <use style="fill:#4c72b0;stroke:#4c72b0;" x="364.652512" xlink:href="#m5672dd5af9" y="570.641004"/>
     <use style="fill:#4c72b0;stroke:#4c72b0;" x="623.725765" xlink:href="#m5672dd5af9" y="293.467851"/>
     <use style="fill:#4c72b0;stroke:#4c72b0;" x="557.178235" xlink:href="#m5672dd5af9" y="352.446933"/>
     <use style="fill:#4c72b0;stroke:#4c72b0;" x="485.578124" xlink:href="#m5672dd5af9" y="434.096676"/>
     <use style="fill:#4c72b0;stroke:#4c72b0;" x="418.789952" xlink:href="#m5672dd5af9" y="504.483169"/>
     <use style="fill:#4c72b0;stroke:#4c72b0;" x="656.106118" xlink:href="#m5672dd5af9" y="283.78093"/>
     <use style="fill:#4c72b0;stroke:#4c72b0;" x="408.457124" xlink:href="#m5672dd5af9" y="508.872823"/>
     <use style="fill:#4c72b0;stroke:#4c72b0;" x="546.861039" xlink:href="#m5672dd5af9" y="354.826195"/>
     <use style="fill:#4c72b0;stroke:#4c72b0;" x="316.81241" xlink:href="#m5672dd5af9" y="606.797855"/>
     <use style="fill:#4c72b0;stroke:#4c72b0;" x="363.380763" xlink:href="#m5672dd5af9" y="579.747075"/>
     <use style="fill:#4c72b0;stroke:#4c72b0;" x="388.794962" xlink:href="#m5672dd5af9" y="540.21365"/>
     <use style="fill:#4c72b0;stroke:#4c72b0;" x="292.839247" xlink:href="#m5672dd5af9" y="619.685806"/>
     <use style="fill:#4c72b0;stroke:#4c72b0;" x="644.327155" xlink:href="#m5672dd5af9" y="258.046551"/>
     <use style="fill:#4c72b0;stroke:#4c72b0;" x="531.898082" xlink:href="#m5672dd5af9" y="362.904398"/>
     <use style="fill:#4c72b0;stroke:#4c72b0;" x="181.692038" xlink:href="#m5672dd5af9" y="681.813586"/>
     <use style="fill:#4c72b0;stroke:#4c72b0;" x="245.339917" xlink:href="#m5672dd5af9" y="640.842827"/>
     <use style="fill:#4c72b0;stroke:#4c72b0;" x="350.525459" xlink:href="#m5672dd5af9" y="599.015811"/>
    </g>
   </g>
   <g id="patch_3">
    <path d="M 80.64 756 
L 80.64 103.68 
" style="fill:none;stroke:#cccccc;stroke-linecap:square;stroke-linejoin:miter;stroke-width:1.25;"/>
   </g>
   <g id="patch_4">
    <path d="M 957.6 756 
L 957.6 103.68 
" style="fill:none;stroke:#cccccc;stroke-linecap:square;stroke-linejoin:miter;stroke-width:1.25;"/>
   </g>
   <g id="patch_5">
    <path d="M 80.64 756 
L 957.6 756 
" style="fill:none;stroke:#cccccc;stroke-linecap:square;stroke-linejoin:miter;stroke-width:1.25;"/>
   </g>
   <g id="patch_6">
    <path d="M 80.64 103.68 
L 957.6 103.68 
" style="fill:none;stroke:#cccccc;stroke-linecap:square;stroke-linejoin:miter;stroke-width:1.25;"/>
   </g>
  </g>
 </g>
 <defs>
  <clipPath id="p9dc0887031">
   <rect height="652.32" width="876.96" x="80.64" y="103.68"/>
  </clipPath>
 </defs>
</svg>
